<svg width="16" height="13" viewBox="0 0 16 13" fill="none" xmlns="http://www.w3.org/2000/svg">
<path d="M1.76737 6.80193L1.76739 6.80196C2.00134 7.15702 2.45706 7.66912 3.05025 8.25282C3.63629 8.8295 4.33326 9.45356 5.02902 10.0292C5.72577 10.6057 6.41332 11.1271 6.98045 11.5014C7.26478 11.689 7.50989 11.8337 7.7052 11.9296C7.90107 12.0258 7.99164 12.0444 8.00513 12.0472C8.00533 12.0473 8.00552 12.0473 8.00569 12.0473C8.01199 12.0464 8.03528 12.0426 8.07961 12.0283C8.13892 12.0091 8.21708 11.9772 8.31484 11.9296C8.51059 11.8342 8.75549 11.6901 9.03915 11.5031C9.60498 11.1302 10.2892 10.6104 10.9823 10.035C12.3858 8.8698 13.7449 7.54352 14.2322 6.8024C14.7255 6.05233 15.0488 5.27366 14.9939 4.24718C14.8967 2.43067 13.4119 0.952339 11.6288 0.952339C10.8021 0.952339 10.0898 1.41461 9.50522 1.95341C9.25032 2.18836 9.03541 2.42273 8.85013 2.62478C8.82548 2.65166 8.80135 2.67797 8.77773 2.70364C8.68218 2.80743 8.58381 2.91274 8.49579 2.99244C8.45187 3.0322 8.39603 3.07903 8.33268 3.1184C8.28054 3.1508 8.16012 3.21918 8.00003 3.21918C7.8257 3.21918 7.69933 3.13585 7.65611 3.10626C7.59702 3.06579 7.5452 3.01845 7.50543 2.97965C7.42536 2.90152 7.3333 2.79712 7.24359 2.69502C7.23568 2.68601 7.22769 2.67691 7.21963 2.66773C7.03518 2.4577 6.81255 2.20419 6.54143 1.95159C5.97036 1.41954 5.24758 0.952339 4.37117 0.952339C2.58812 0.952339 1.10326 2.43067 1.00601 4.24712L1.76737 6.80193ZM1.76737 6.80193C1.27571 6.05591 0.951167 5.27376 1.006 4.24717L1.76737 6.80193Z" fill="white" stroke="black"/>
</svg>
